<svg xmlns="http://www.w3.org/2000/svg" viewBox="0 0 16 16" shape-rendering="crispEdges" role="img" aria-label="DUH pixel flame">
  <rect width="16" height="16" fill="#171220"/>
  <path fill="#6d3fd6" d="M7 1h2v3h2v2h2v2h1v5h-2v2H5v-1H3v-2H2V8h1V6h2V3h2z"/>
  <path fill="#ff6b57" d="M7 1h1v4h2V4h1v3h2v5h-2v2H5v-1H3V8h2V5h2z"/>
  <path fill="#ff9d4d" d="M7 6h2v2h2v4h-1v1H6v-1H5V9h2z"/>
  <path fill="#fff4d6" d="M8 8h1v2h1v2H7v-1H6v-1h2z"/>
  <rect x="3" y="3" width="1" height="1" fill="#fff4d6"/>
  <rect x="12" y="3" width="1" height="1" fill="#ff9d4d"/>
  <rect x="2" y="14" width="2" height="1" fill="#ff6b57"/>
  <rect x="13" y="13" width="1" height="2" fill="#6d3fd6"/>
</svg>
